<svg width="40" height="40" viewBox="0 0 40 40" fill="none" xmlns="http://www.w3.org/2000/svg">
<path d="M6.27319 16.3635H1.81872C0.814468 16.3635 0 17.178 0 18.1822V38.1822C0 39.1857 0.814468 40.0001 1.81872 40.0001H6.27319C7.27745 40.0001 8.09106 39.1857 8.09106 38.1822V18.1822C8.09106 17.178 7.27745 16.3635 6.27319 16.3635Z" fill="white"/>
<path d="M16.9099 21.8171H12.4554C11.4503 21.8171 10.6367 22.6316 10.6367 23.6359V38.1805C10.6367 39.1856 11.4503 39.9993 12.4554 39.9993H16.9099C17.9142 39.9993 18.7278 39.1848 18.7278 38.1805V23.6359C18.7278 22.6316 17.9142 21.8171 16.9099 21.8171Z" fill="white"/>
<path d="M27.5448 21.8171H23.0903C22.0861 21.8171 21.2725 22.6316 21.2725 23.6359V38.1805C21.2725 39.1856 22.0861 39.9993 23.0903 39.9993H27.5448C28.5499 39.9993 29.3635 39.1848 29.3635 38.1805V23.6359C29.3635 22.6316 28.5499 21.8171 27.5448 21.8171Z" fill="white"/>
<path d="M38.1815 16.3635H33.7271C32.7228 16.3635 31.9092 17.178 31.9092 18.1822V38.1822C31.9092 39.1865 32.7228 40.0001 33.7271 40.0001H38.1815C39.1858 40.0001 40.0002 39.1848 40.0002 38.1822V18.1822C40.0002 17.178 39.1858 16.3635 38.1815 16.3635Z" fill="white"/>
<path d="M20.5303 10.9531V14.2263C21.5209 14.1608 22.5652 13.6961 22.5652 12.6059C22.5652 11.4808 21.4205 11.1514 20.5303 10.9531Z" fill="white"/>
<path d="M17.6836 7.03572C17.6836 7.86295 18.2989 8.34125 19.5389 8.58976V5.62891C18.4121 5.6621 17.6836 6.32423 17.6836 7.03572Z" fill="white"/>
<path d="M20 0C14.486 0 10 4.48681 10 10C10 15.5115 14.486 19.9983 20 19.9983C25.514 19.9983 30 15.5115 30 10C30 4.48681 25.514 0 20 0ZM20.5302 15.914V16.9379C20.5302 17.2196 20.314 17.5004 20.0315 17.5004C19.7523 17.5004 19.5387 17.2196 19.5387 16.9379V15.914C16.7447 15.846 15.3549 14.1762 15.3549 12.8698C15.3549 12.2102 15.754 11.8289 16.3787 11.8289C18.2306 11.8289 16.7906 14.1106 19.5387 14.2255V10.7702C17.0877 10.3251 15.6034 9.25021 15.6034 7.41532C15.6034 5.16766 17.4723 4.00851 19.5387 3.94383V3.06213C19.5387 2.78043 19.7523 2.49957 20.0315 2.49957C20.314 2.49957 20.5302 2.78043 20.5302 3.06213V3.94383C21.8187 3.97787 24.4647 4.78638 24.4647 6.40766C24.4647 7.05192 23.983 7.43149 23.4204 7.43149C22.3447 7.43149 22.36 5.66383 20.5302 5.62979V8.77106C22.7123 9.23489 24.6451 9.87915 24.6451 12.4255C24.6451 14.64 22.9923 15.7634 20.5302 15.914Z" fill="white"/>
</svg>
