<svg width="35" height="35" viewBox="0 0 35 35" fill="none" xmlns="http://www.w3.org/2000/svg">
<g clip-path="url(#clip0)">
<path d="M33.3111 17.273L29.9392 17.2722C29.0083 17.273 28.2525 18.0273 28.251 18.9582V33.2292C28.251 34.1616 29.0083 34.9167 29.9392 34.9167H33.3111C34.2434 34.9167 35 34.1616 35 33.2292V18.9612C35 18.0288 34.2434 17.273 33.3111 17.273ZM31.9669 33.154C31.4263 33.6954 30.5498 33.6954 30.0092 33.154C29.4685 32.6126 29.4685 31.7376 30.0092 31.197C30.5498 30.6549 31.427 30.6549 31.9669 31.197C32.5068 31.7369 32.5068 32.6126 31.9669 33.154Z" fill="white"/>
<path d="M21.6538 7.29424C21.8005 5.14286 22.3754 4.05413 22.5757 1.92956C22.6904 0.718709 21.4222 0.0834961 19.1152 0.0834961C16.8082 0.0834961 15.9146 2.1485 15.6539 2.85222C15.0776 4.41009 15.6539 9.54318 15.6539 12.0818C15.6539 14.082 12.0757 15.1797 7.98149 15.1864C2.34947 15.1975 5.50326e-07 13.8512 5.50326e-07 17.3847C5.50326e-07 18.6074 0.754362 19.5986 1.6867 19.5979C0.754362 19.5979 -0.000744131 20.5913 5.50326e-07 21.8125C5.50326e-07 23.0338 0.754362 24.0272 1.6867 24.025C0.754362 24.0265 0.000745231 25.0176 5.50326e-07 26.2374C5.50326e-07 27.4624 0.755852 28.4514 1.6867 28.4529C0.755852 28.4514 5.50322e-07 29.4433 0.000745231 30.6683C0.000745231 31.8918 0.755107 32.8815 1.6867 32.8815C1.6867 32.8815 4.08383 32.8837 13.1764 32.8837C22.2689 32.8837 25.591 32.8837 25.591 32.8837C26.0564 32.8837 26.4332 32.5062 26.4339 32.0392V19.2278C26.4347 19.0915 26.4004 18.9582 26.3379 18.8375C26.3371 18.8375 21.2495 13.2353 21.6538 7.29424Z" fill="white"/>
</g>
<defs>
<clipPath id="clip0">
<rect width="35" height="35" fill="white"/>
</clipPath>
</defs>
</svg>
