<svg width="40" height="51" viewBox="0 0 40 51" fill="none" xmlns="http://www.w3.org/2000/svg">
<path d="M39.9978 20.1799C39.9978 8.79456 30.6497 -0.386477 19.2815 0.00862984C9.26346 0.362147 1.04908 8.13952 0.0905626 18.2043C-0.105263 20.2007 0.00810969 22.145 0.358535 24.0062C0.358535 24.0062 0.389455 24.2245 0.492521 24.63C0.801719 26.0233 1.25521 27.3646 1.84269 28.6331C3.91432 33.5719 8.75843 41.9108 19.7865 50.9151C19.9102 51.019 20.0957 51.019 20.2194 50.9151C31.2578 41.9108 36.0916 33.5719 38.1632 28.6331C38.7404 27.3646 39.2042 26.0233 39.5134 24.63C39.6061 24.2245 39.6474 24.0062 39.6474 24.0062C39.8741 22.7793 39.9978 21.49 39.9978 20.1799ZM29.1552 31.7836C28.8873 31.2741 28.4441 30.8582 27.7535 30.671C25.3521 30.0576 23.3938 28.6643 23.3938 28.6643L21.8685 33.5303L21.5799 34.4453V34.4349L21.3325 35.2147L20.5286 32.9169C22.5075 30.1303 20.1266 30.1615 19.9926 30.1615C19.8587 30.1615 17.4778 30.1303 19.4567 32.9169L18.6528 35.2147L18.4054 34.4349V34.4453L18.1168 33.5303L16.5915 28.6643C16.5915 28.6643 14.6332 30.0576 12.2318 30.671C11.5412 30.8478 11.098 31.2741 10.8301 31.7836C8.97487 29.6313 6.20239 26.0025 6.20239 20.419C6.20239 12.2154 12.7368 6.5071 19.9926 6.5071C27.1248 6.5071 33.7829 12.9952 33.7829 20.419C33.7829 25.5034 31.0104 29.6313 29.1552 31.7836Z" fill="white"/>
<path d="M24.4581 22.1259C24.5303 21.9075 24.5921 21.6996 24.6333 21.4812C25.3033 17.4366 23.3244 17.291 23.3244 17.291C23.3244 17.291 22.9946 16.6568 22.1391 16.1785C21.562 15.8354 20.758 15.565 19.6965 15.6586C19.3563 15.6794 19.0265 15.7418 18.7276 15.8458C18.336 15.9809 17.9753 16.1681 17.6558 16.3968C17.2538 16.6464 16.8828 16.9583 16.553 17.3118C16.0273 17.8525 15.5635 18.5491 15.3574 19.4225C15.1925 20.0776 15.2234 20.7534 15.3677 21.4812C15.4089 21.6892 15.4604 21.9075 15.5429 22.1259C15.1513 22.0843 14.6875 22.3234 15.1203 23.8831C15.4398 25.0268 15.7387 25.3491 15.9655 25.3595C16.1716 26.7216 17.2126 28.4476 18.9235 29.0507C19.6243 29.3002 20.3973 29.3002 21.0879 29.0507C22.7678 28.4372 23.8397 26.7216 24.0459 25.3595C24.2726 25.3387 24.5715 25.0164 24.891 23.8831C25.3239 22.313 24.8601 22.0843 24.4581 22.1259Z" fill="white"/>
</svg>
