<svg width="46" height="43" viewBox="0 0 46 43" fill="none" xmlns="http://www.w3.org/2000/svg">
<g clip-path="url(#clip0)">
<path d="M45.6425 38.1683C43.0762 36.0737 40.3118 34.6836 39.7552 34.4018C39.6891 34.3736 39.6514 34.3079 39.6514 34.2327V30.2596C40.1514 29.9308 40.4817 29.3579 40.4817 28.7098V24.5864C40.4817 22.5387 38.8117 20.8762 36.7549 20.8762H36.3115H35.8586C33.8018 20.8762 32.1318 22.5387 32.1318 24.5864V28.7098C32.1318 29.3579 32.4621 29.9215 32.9621 30.2596V34.2327C32.9621 34.2609 32.9527 34.2797 32.9527 34.2985C33.7358 34.8339 34.5566 35.435 35.3586 36.0925C36.2926 36.8627 36.8304 37.9992 36.8304 39.2109V42.5359H46.369V39.7181C46.369 39.117 46.1048 38.5534 45.6425 38.1683Z" fill="white"/>
<path d="M13.6582 34.2423V30.2691C14.1583 29.9404 14.4885 29.3674 14.4885 28.7193V24.5959C14.4885 22.5483 12.8185 20.8857 10.7617 20.8857H10.3183H9.87484C7.81805 20.8857 6.14808 22.5483 6.14808 24.5959V28.7193C6.14808 29.3674 6.4783 29.931 6.97834 30.2691V34.2423C6.97834 34.308 6.94061 34.3738 6.87456 34.4113C6.30847 34.6837 3.54406 36.0739 0.987224 38.1778C0.524918 38.5535 0.260742 39.1265 0.260742 39.7183V42.5361H9.79936V39.2204C9.79936 38.0088 10.3371 36.8722 11.2712 36.102C12.0732 35.4445 12.894 34.8434 13.6771 34.308C13.6582 34.2892 13.6582 34.2704 13.6582 34.2423Z" fill="white"/>
<path d="M37.8298 11.5117C39.3566 11.5117 40.5942 10.2796 40.5942 8.75965C40.5942 7.23972 39.3566 6.00757 37.8298 6.00757C36.3031 6.00757 35.0654 7.23972 35.0654 8.75965C35.0654 10.2796 36.3031 11.5117 37.8298 11.5117Z" fill="white"/>
<path d="M31.5284 14.461C31.2076 15.1561 30.6509 16.0108 29.7735 16.4429C29.481 16.5838 29.547 17.0158 29.8678 17.0628C30.8302 17.2131 32.2077 17.044 33.5002 16.0766L33.5191 16.0953C36.793 18.0115 41.067 17.57 43.8785 14.771C47.209 11.4553 47.209 6.07325 43.8785 2.74821C40.548 -0.567438 35.1419 -0.567438 31.802 2.74821C28.5941 5.94175 28.4715 11.0514 31.4434 14.3859L31.5284 14.461ZM31.4812 8.2148C31.4906 7.92363 31.7359 7.68881 32.0284 7.68881L32.8209 7.70759C32.9624 7.03131 33.2455 6.39261 33.6606 5.81025L33.104 5.2373C32.8964 5.02126 32.9058 4.68312 33.1228 4.47648L33.7267 3.90352C33.9437 3.69688 34.2833 3.70627 34.4909 3.92231L35.0475 4.50466C35.6419 4.11956 36.3024 3.87534 36.9817 3.76263L37.0006 2.95485C37.01 2.66368 37.2553 2.42886 37.5478 2.42886L38.378 2.44764C38.6705 2.45703 38.9064 2.70125 38.9064 2.99242L38.8875 3.80959C39.5574 3.95049 40.199 4.23227 40.7839 4.63616L41.3783 4.07259C41.5953 3.86595 41.935 3.87534 42.1425 4.09138L42.7181 4.69251C42.9256 4.90855 42.9162 5.24669 42.6992 5.45333L42.1048 6.01689C42.4916 6.60864 42.7464 7.26613 42.8596 7.93302L43.6804 7.95181C43.9729 7.9612 44.2088 8.20541 44.2088 8.49659L44.1899 9.32315C44.1805 9.61433 43.9352 9.84915 43.6427 9.84915L42.8313 9.83036C42.6898 10.4972 42.4161 11.1453 42.001 11.7277L42.5577 12.3101C42.7652 12.5261 42.7558 12.8642 42.5388 13.0709L41.935 13.6438C41.718 13.8505 41.3783 13.8411 41.1707 13.625L40.6141 13.0521C40.0197 13.4466 39.3498 13.7002 38.6705 13.8129L38.6516 14.6019C38.6422 14.8931 38.3969 15.1279 38.1044 15.1279L37.2742 15.1091C36.9817 15.0997 36.7458 14.8555 36.7458 14.5643L36.7647 13.7753C36.0854 13.6344 35.4344 13.3526 34.8494 12.9394L34.2833 13.4841C34.0663 13.6908 33.7267 13.6814 33.5191 13.4654L32.9436 12.8642C32.736 12.6482 32.7454 12.3101 32.9624 12.1034L33.5285 11.5586C33.1323 10.9575 32.887 10.3 32.7738 9.61433L31.9812 9.59554C31.6887 9.58615 31.4529 9.34194 31.4529 9.05076L31.4812 8.2148Z" fill="white"/>
<path d="M34.2825 37.4076C31.2728 34.9467 28.0178 33.303 27.3573 32.9836C27.2819 32.9461 27.2347 32.8709 27.2347 32.7864V28.1182C27.8291 27.7237 28.2159 27.0568 28.2159 26.3054V21.4587C28.2159 19.0448 26.2535 17.0911 23.8287 17.0911H23.3098H22.7909C20.3661 17.0911 18.4037 19.0448 18.4037 21.4587V26.3054C18.4037 27.0662 18.7905 27.7331 19.3849 28.1182V32.7864C19.3849 32.8709 19.3377 32.9461 19.2623 32.9836C18.6018 33.303 15.3562 34.9373 12.3371 37.4076C11.7899 37.8491 11.4785 38.516 11.4785 39.2204V42.5361H21.753L22.772 37.9054C20.7247 35.0594 22.923 34.9185 23.3098 34.9185C23.6966 34.9185 25.8949 35.0594 23.8476 37.9054L24.8665 42.5361H35.1411V39.2204C35.1411 38.516 34.8297 37.8491 34.2825 37.4076Z" fill="white"/>
</g>
<defs>
<clipPath id="clip0">
<rect width="46" height="43" fill="white"/>
</clipPath>
</defs>
</svg>
