<svg width="43" height="37" viewBox="0 0 43 37" fill="none" xmlns="http://www.w3.org/2000/svg">
<path d="M17.451 24.7725V23.4236C17.451 23.4236 21.6985 23.555 23.7132 21.4878C23.7132 21.4878 20.7827 20.6557 21.306 15.2865C21.8293 9.926 20.6519 5.21367 16.3521 5.60782C16.3521 5.60782 14.4944 3.35676 10.7876 4.77572C9.51425 5.25746 6.10406 6.49248 6.27849 13.9201C6.45293 21.3477 3.64453 21.3915 3.64453 21.3915C3.64453 21.3915 5.09234 23.5024 9.99395 23.4586V24.8425L13.7356 35.7825L17.4598 24.8688L17.451 24.7725Z" fill="white"/>
<path d="M26.7133 31.7799C26.4691 30.431 25.6056 29.2748 24.3758 28.6705L19.6835 26.3406C19.4132 26.2092 19.1515 26.0603 18.8899 25.9114L20.3726 30.2996L18.3055 30.142L13.7353 35.7828L9.17385 30.142L7.1068 30.2996L8.61566 25.9114L7.67372 26.3931L3.0948 28.6617C1.87376 29.2661 1.00159 30.4223 0.757378 31.7712L0.00730888 35.9317C-0.0450215 36.2382 0.190465 36.5185 0.495726 36.5185H13.5609H13.9098H26.9749C27.2889 36.5185 27.5157 36.2382 27.4633 35.9317L26.7133 31.7799Z" fill="white"/>
<path d="M39.9702 2.72621C36.3507 -0.908738 30.4897 -0.908738 26.8701 2.72621C23.3902 6.22102 23.2593 11.818 26.4777 15.4704L26.5736 15.5493C26.2247 16.3113 25.6229 17.2485 24.6635 17.7127C24.3496 17.8704 24.4193 18.3434 24.7682 18.3959C25.8148 18.5623 27.3149 18.3784 28.7104 17.3186L28.7279 17.3361C32.2776 19.4295 36.9263 18.9477 39.9702 15.8909C43.5897 12.2559 43.5897 6.36116 39.9702 2.72621ZM33.8126 3.55831C34.6412 3.55831 35.3128 4.25027 35.3041 5.09112C35.2953 5.93198 34.6238 6.61517 33.8039 6.60641C32.9579 6.59766 32.2863 5.9057 32.2863 5.06484C32.2951 4.23275 32.9754 3.55831 33.8126 3.55831ZM35.9582 13.7887C35.9233 13.9201 35.8448 14.0515 35.7489 14.1478C35.1994 14.7084 34.5453 15.0413 33.7516 15.05C33.3853 15.0588 33.0102 15.0413 32.6526 14.9887C32.0508 14.9011 31.2833 14.1478 31.388 13.3508C31.4665 12.8077 31.545 12.2559 31.6409 11.7129C31.7979 10.7669 31.9724 9.82094 32.1381 8.86621C32.1468 8.8049 32.1555 8.74359 32.1555 8.68228C32.1555 8.28813 32.0334 8.14798 31.6409 8.09543C31.4752 8.06915 31.3008 8.0604 31.1438 7.99908C30.9519 7.92901 30.8647 7.78011 30.8821 7.62245C30.8996 7.45603 31.0042 7.35092 31.2223 7.30713C31.3357 7.28085 31.449 7.28085 31.5624 7.28085C32.0247 7.28085 32.4869 7.28085 32.9492 7.28085C33.4376 7.28085 33.926 7.28085 34.4232 7.28085C34.772 7.28085 34.9901 7.44727 34.9988 7.80639C35.0075 8.10419 34.9552 8.40199 34.9029 8.69104C34.711 9.77714 34.5104 10.8545 34.3098 11.9406C34.2487 12.2997 34.1702 12.6588 34.1266 13.0179C34.1092 13.1931 34.1266 13.3771 34.1702 13.5435C34.2313 13.7712 34.397 13.8938 34.6238 13.8676C34.8156 13.85 35.0075 13.78 35.182 13.7099C35.3302 13.6573 35.461 13.5522 35.6093 13.4909C35.8361 13.4033 36.0105 13.561 35.9582 13.7887Z" fill="white"/>
</svg>
