<svg width="57" height="56" viewBox="0 0 57 56" fill="none" xmlns="http://www.w3.org/2000/svg">
<path d="M48.5881 21.95H46.5117C46.1703 20.1316 45.4597 18.4418 44.4539 16.9724L45.9119 15.5214C46.4564 14.9796 46.4564 14.098 45.9119 13.5561L44.3893 12.0408C43.8448 11.499 42.9589 11.499 42.4144 12.0408L40.9656 13.4827C39.4891 12.4724 37.7911 11.7561 35.9547 11.4071V9.38673C35.9547 8.62449 35.3272 8 34.5612 8H32.4111C31.6451 8 31.0176 8.62449 31.0176 9.38673V11.4163C29.1904 11.7653 27.4924 12.4816 26.0067 13.4918L24.5579 12.05C24.0134 11.5082 23.1275 11.5082 22.5831 12.05L21.0604 13.5653C20.5159 14.1071 20.5159 14.9888 21.0604 15.5306L22.5185 16.9816C21.5126 18.451 20.802 20.1408 20.4606 21.9592H18.3935C17.6275 21.9592 17 22.5837 17 23.3459V25.4857C17 26.248 17.6275 26.8724 18.3935 26.8724H20.4883C20.8389 28.6816 21.5587 30.3531 22.5646 31.8133L21.0696 33.301C20.5252 33.8429 20.5252 34.7245 21.0696 35.2663L22.5923 36.7816C23.1367 37.3235 24.0227 37.3235 24.5671 36.7816L26.0713 35.2847C26.5881 35.6337 27.1233 35.9459 27.6862 36.2214V31.299C25.6837 29.6459 24.4195 27.148 24.4195 24.3561C24.4195 19.3694 28.4799 15.3194 33.5 15.3194C38.5109 15.3194 42.5805 19.3602 42.5805 24.3561C42.5805 27.148 41.307 29.6459 39.3138 31.299V36.2214C39.8767 35.9459 40.4211 35.6337 40.9287 35.2847L42.4329 36.7816C42.9773 37.3235 43.8633 37.3235 44.4077 36.7816L45.9304 35.2663C46.4748 34.7245 46.4748 33.8429 45.9304 33.301L44.4354 31.8133C45.4413 30.3531 46.1611 28.6816 46.5117 26.8724H48.6065C49.3725 26.8724 50 26.248 50 25.4857V23.3367C49.9815 22.5745 49.354 21.95 48.5881 21.95Z" fill="white"/>
<path d="M37.0805 19.4612C36.8406 19.2867 36.5084 19.452 36.5084 19.7459V22.3265C36.5084 23.5479 35.5117 24.5398 34.2844 24.5398H32.6971C31.4698 24.5398 30.4731 23.5479 30.4731 22.3265V19.7459C30.4731 19.452 30.1409 19.2867 29.901 19.4612C28.4152 20.554 27.4463 22.3173 27.4463 24.301C27.4463 26.2479 28.3783 27.9744 29.8179 29.0765C30.4547 29.5632 30.8238 30.3071 30.8238 31.1061V50.3551C30.8238 51.8153 32.0235 53 33.4908 53C34.9673 53 36.1577 51.8153 36.1577 50.3551V31.0969C36.1577 30.2979 36.5268 29.554 37.1636 29.0673C38.6032 27.9653 39.5352 26.2387 39.5352 24.2918C39.5352 22.3173 38.5755 20.554 37.0805 19.4612ZM34.2659 50.0153C34.2659 50.4377 33.9152 50.7867 33.4908 50.7867C33.0663 50.7867 32.7156 50.4377 32.7156 50.0153V30.3714C32.7156 29.9489 33.0663 29.6 33.4908 29.6C33.9152 29.6 34.2659 29.9489 34.2659 30.3714V50.0153Z" fill="white"/>
</svg>
